<svg width="32" height="32" viewBox="0 0 32 32" fill="none" xmlns="http://www.w3.org/2000/svg">
<path d="M16.0003 31.6666C15.267 31.6666 14.667 31.0666 14.667 30.3333V1.66659C14.667 0.933252 15.267 0.333252 16.0003 0.333252C16.7337 0.333252 17.3337 0.933252 17.3337 1.66659V30.3999C17.3337 31.0666 16.7337 31.6666 16.0003 31.6666Z" fill="black"/>
<path d="M30.3335 31.6665C29.8002 31.6665 29.3335 31.3332 29.1335 30.8665C28.1335 30.3332 23.6668 29.3998 16.0002 29.3998C8.3335 29.3998 3.80016 30.3332 2.86683 30.8665C2.66683 31.3332 2.20016 31.6665 1.66683 31.6665C0.933496 31.6665 0.333496 31.0665 0.333496 30.3332C0.333496 28.8665 1.86683 27.9998 5.66683 27.3998C8.46683 26.9332 12.1335 26.7332 16.0002 26.7332C19.9335 26.7332 23.6002 26.9998 26.3335 27.3998C30.1335 27.9998 31.6668 28.8665 31.6668 30.3332C31.6668 31.0665 31.0668 31.6665 30.3335 31.6665Z" fill="black"/>
<path d="M26.9334 9.8001H5.06673C4.3334 9.8001 3.7334 9.2001 3.7334 8.46676V3.93343C3.7334 3.2001 4.3334 2.6001 5.06673 2.6001C5.80007 2.6001 6.40007 3.2001 6.40007 3.93343V7.2001H25.7334V3.93343C25.7334 3.2001 26.3334 2.6001 27.0667 2.6001C27.8001 2.6001 28.4001 3.2001 28.4001 3.93343V8.53343C28.2667 9.2001 27.6667 9.8001 26.9334 9.8001Z" fill="black"/>
<path d="M5.00033 5.73335C3.73366 5.73335 2.66699 4.66668 2.66699 3.33335C2.66699 2.00002 3.73366 0.93335 5.06699 0.93335C6.40033 0.93335 7.46699 2.00002 7.46699 3.33335C7.46699 4.66668 6.33366 5.73335 5.00033 5.73335ZM5.00033 3.13335C4.86699 3.13335 4.73366 3.20002 4.73366 3.33335C4.73366 3.46668 4.86699 3.60002 5.00033 3.60002C5.13366 3.60002 5.26699 3.46668 5.26699 3.33335C5.26699 3.20002 5.13366 3.13335 5.00033 3.13335Z" fill="black"/>
<path d="M26.9337 6.2668C25.6004 6.2668 24.5337 5.20013 24.5337 3.8668C24.5337 2.53346 25.6004 1.4668 26.9337 1.4668C28.267 1.4668 29.3337 2.53346 29.3337 3.8668C29.3337 5.20013 28.267 6.2668 26.9337 6.2668ZM26.9337 3.6668C26.8004 3.6668 26.667 3.80013 26.667 3.93346C26.667 4.0668 26.8004 4.20013 26.9337 4.20013C27.067 4.20013 27.2004 4.0668 27.2004 3.93346C27.2004 3.80013 27.1337 3.6668 26.9337 3.6668Z" fill="black"/>
<path d="M26.9334 20.8668H5.06673C4.3334 20.8668 3.7334 20.2668 3.7334 19.5334V14.9334C3.7334 14.2001 4.3334 13.6001 5.06673 13.6001C5.80007 13.6001 6.40007 14.2001 6.40007 14.9334V18.2001H25.7334V14.9334C25.7334 14.2001 26.3334 13.6001 27.0667 13.6001C27.8001 13.6001 28.4001 14.2001 28.4001 14.9334V19.5334C28.2667 20.3334 27.6667 20.8668 26.9334 20.8668Z" fill="black"/>
<path d="M5.0001 16.8C3.66676 16.8 2.6001 15.7333 2.6001 14.4C2.6001 13.0667 3.66676 12 5.0001 12C6.33343 12 7.4001 13.0667 7.4001 14.4C7.4001 15.7333 6.33343 16.8 5.0001 16.8ZM5.0001 14.2C4.86676 14.2 4.73343 14.3333 4.73343 14.4667C4.73343 14.6 4.86676 14.6667 5.0001 14.6667C5.13343 14.6667 5.26676 14.5333 5.26676 14.4C5.26676 14.2667 5.13343 14.2 5.0001 14.2Z" fill="black"/>
<path d="M26.9337 17.4001C25.6004 17.4001 24.5337 16.3334 24.5337 15.0001C24.5337 13.6668 25.6004 12.6001 26.9337 12.6001C28.267 12.6001 29.3337 13.6668 29.3337 15.0001C29.3337 16.3334 28.267 17.4001 26.9337 17.4001ZM26.9337 14.8001C26.8004 14.8001 26.667 14.9334 26.667 15.0668C26.667 15.2001 26.8004 15.3334 26.9337 15.3334C27.067 15.3334 27.2004 15.2001 27.2004 15.0668C27.2004 14.8668 27.1337 14.8001 26.9337 14.8001Z" fill="black"/>
</svg>
