<svg width="32" height="24" viewBox="0 0 32 24" fill="none" xmlns="http://www.w3.org/2000/svg">
<path d="M30.75 10.75H1.25C0.559625 10.75 0 11.3096 0 12C0 12.6904 0.559625 13.25 1.25 13.25H30.75C31.4404 13.25 32 12.6904 32 12C32 11.3096 31.4404 10.75 30.75 10.75Z" fill="black"/>
<path d="M30.75 0.75H1.25C0.559625 0.75 0 1.30963 0 2C0 2.69037 0.559625 3.25 1.25 3.25H30.75C31.4404 3.25 32 2.69037 32 2C32 1.30963 31.4404 0.75 30.75 0.75Z" fill="black"/>
<path d="M30.75 20.75H1.25C0.559625 20.75 0 21.3096 0 22C0 22.6904 0.559625 23.25 1.25 23.25H30.75C31.4404 23.25 32 22.6904 32 22C32 21.3096 31.4404 20.75 30.75 20.75Z" fill="black"/>
</svg>
