<svg width="36" height="25" viewBox="0 0 36 25" fill="none" xmlns="http://www.w3.org/2000/svg">
<g clip-path="url(#clip0)">
<path d="M12.1007 16.8382H3.98441C3.24656 16.8382 2.65628 16.3235 2.5825 15.5882L0.368956 1.91173C0.221386 1.10291 0.811664 0.367611 1.54951 0.294082C2.36114 0.147023 3.09899 0.661729 3.24656 1.47055L5.16496 13.9706H12.1007C12.9124 13.9706 13.5764 14.6323 13.5764 15.4411C13.5764 16.25 12.9124 16.8382 12.1007 16.8382Z" fill="black"/>
<path d="M11.0676 24.7793C10.3298 24.7793 9.73952 24.2646 9.66574 23.5293L8.92789 16.9117H5.23865L4.50081 23.5293C4.42702 24.2646 3.68917 24.8529 2.87754 24.7058C2.06591 24.6323 1.54942 23.897 1.6232 23.0882L2.50862 15.147C2.5824 14.4117 3.24647 13.897 3.91053 13.897H10.1084C10.8463 13.897 11.4366 14.4117 11.5104 15.147L12.5433 23.1617C12.6171 23.9705 12.0268 24.6323 11.289 24.7793C11.2152 24.7793 11.1414 24.7793 11.0676 24.7793Z" fill="black"/>
<path d="M31.4323 16.8382H23.316C22.5044 16.8382 21.8403 16.1765 21.8403 15.3677C21.8403 14.5588 22.5044 13.8971 23.316 13.8971H30.2518L32.244 1.39707C32.3916 0.588242 33.1294 0.0735369 33.8672 0.220596C34.6789 0.367655 35.1954 1.10295 35.0478 1.83824L32.908 15.5147C32.7605 16.3235 32.1702 16.8382 31.4323 16.8382Z" fill="black"/>
<path d="M32.3914 24.7795C31.6535 24.7795 31.0633 24.2648 30.9895 23.5295L30.2516 16.9119H26.5624L25.8245 23.5295C25.7508 24.3383 25.0129 24.8531 24.2013 24.7795C23.3896 24.706 22.8731 23.9707 22.9469 23.1619L23.8323 15.2207C23.9061 14.4854 24.5702 13.9707 25.2343 13.9707H31.4322C32.17 13.9707 32.7603 14.4854 32.8341 15.2207L33.7195 23.1619C33.7933 23.9707 33.203 24.6325 32.4652 24.7795H32.3914Z" fill="black"/>
<path d="M17.7086 24.7793C16.897 24.7793 16.2329 24.1175 16.2329 23.3087V6.69105C16.2329 5.88222 16.897 5.22046 17.7086 5.22046C18.5202 5.22046 19.1843 5.88222 19.1843 6.69105V23.3087C19.1843 24.1175 18.5202 24.7793 17.7086 24.7793Z" fill="black"/>
<path d="M24.2754 7.64699H11.1417C10.3301 7.64699 9.66602 6.98522 9.66602 6.1764C9.66602 5.36758 10.3301 4.70581 11.1417 4.70581H24.2016C25.0132 4.70581 25.6773 5.36758 25.6773 6.1764C25.6773 6.98522 25.0132 7.64699 24.2754 7.64699Z" fill="black"/>
</g>
<defs>
<clipPath id="clip0">
<rect width="35.4167" height="25" fill="white"/>
</clipPath>
</defs>
</svg>
