<svg width="70" height="70" viewBox="0 0 70 70" xmlns="http://www.w3.org/2000/svg">
<circle cx="35" cy="35" r="35" fill="#F18700"/>
<path d="M48.9688 24.4375H44.6835C44.1249 19.693 40.0796 16 35.1875 16C30.2954 16 26.2501 19.693 25.6915 24.4375H21.4062C20.6296 24.4375 20 25.0671 20 25.8438V50.5938C20 51.3704 20.6296 52 21.4062 52H48.9688C49.7454 52 50.375 51.3704 50.375 50.5938V25.8438C50.375 25.0671 49.7454 24.4375 48.9688 24.4375ZM35.1875 18.8125C38.5262 18.8125 41.306 21.2492 41.8432 24.4375H28.5318C29.069 21.2492 31.8488 18.8125 35.1875 18.8125ZM47.5625 49.1875H22.8125V27.25H25.625V31.4688C25.625 32.2454 26.2546 32.875 27.0312 32.875C27.8079 32.875 28.4375 32.2454 28.4375 31.4688V27.25H41.9375V31.4688C41.9375 32.2454 42.5671 32.875 43.3438 32.875C44.1204 32.875 44.75 32.2454 44.75 31.4688V27.25H47.5625V49.1875Z"/>
</svg>
