<svg width="32" height="32" viewBox="0 0 32 32" fill="none" xmlns="http://www.w3.org/2000/svg">
<path d="M28.25 7.5H24.4409C23.9443 3.28263 20.3486 0 16 0C11.6514 0 8.05569 3.28263 7.55912 7.5H3.75C3.05963 7.5 2.5 8.05962 2.5 8.75V30.75C2.5 31.4404 3.05963 32 3.75 32H28.25C28.9404 32 29.5 31.4404 29.5 30.75V8.75C29.5 8.05962 28.9404 7.5 28.25 7.5ZM16 2.5C18.9678 2.5 21.4387 4.66594 21.9162 7.5H10.0838C10.5613 4.66594 13.0322 2.5 16 2.5ZM27 29.5H5V10H7.5V13.75C7.5 14.4404 8.05963 15 8.75 15C9.44037 15 10 14.4404 10 13.75V10H22V13.75C22 14.4404 22.5596 15 23.25 15C23.9404 15 24.5 14.4404 24.5 13.75V10H27V29.5Z" fill="black"/>
</svg>
