<svg width="32" height="32" viewBox="0 0 32 32" fill="none" xmlns="http://www.w3.org/2000/svg">
<path d="M26.7902 19.0233H5.09311C4.22522 19.0233 3.51514 18.4118 3.51514 17.6645C3.51514 16.9171 4.22522 16.3057 5.09311 16.3057H26.7902C27.6581 16.3057 28.3682 16.9171 28.3682 17.6645C28.3682 18.4118 27.6581 19.0233 26.7902 19.0233Z" fill="black"/>
<path d="M4.93515 32C4.06727 32 3.35718 31.3885 3.35718 30.6411V17.9363L0.122334 11.414C-0.193261 10.7346 0.122334 9.98723 0.832422 9.71547L6.67092 7.20167C7.45991 6.86196 8.3278 7.13373 8.72229 7.81313C9.11678 8.49254 8.80119 9.23988 8.0122 9.57958L3.51498 11.5499L6.27643 17.1889C6.35533 17.3248 6.43423 17.5286 6.43423 17.7324V30.7091C6.51313 31.3885 5.80304 32 4.93515 32Z" fill="black"/>
<path d="M26.8694 31.9998C26.0015 31.9998 25.2914 31.3883 25.2914 30.641V17.6643C25.2914 17.4605 25.3703 17.3246 25.4492 17.1208L28.2106 11.4817L23.7134 9.51147C22.9244 9.17177 22.6088 8.35648 23.0033 7.74502C23.3978 7.06561 24.3446 6.79385 25.0547 7.13355L30.8932 9.64735C31.6033 9.98705 31.9189 10.7344 31.6033 11.3459L28.3684 17.8682V30.573C28.3684 31.3883 27.7373 31.9998 26.8694 31.9998Z" fill="black"/>
<path d="M26.7109 25.2059H4.93491C4.06702 25.2059 3.35693 24.5944 3.35693 23.8471C3.35693 23.0997 4.06702 22.4883 4.93491 22.4883H26.632C27.4999 22.4883 28.21 23.0997 28.21 23.8471C28.21 24.5944 27.4999 25.2059 26.7109 25.2059Z" fill="black"/>
<path d="M24.2645 19.0233H7.53793C6.67005 19.0233 5.95996 18.4119 5.95996 17.6645V1.35881C5.95996 0.611465 6.67005 0 7.53793 0H24.2645C25.1323 0 25.8424 0.611465 25.8424 1.35881V17.6645C25.8424 18.4119 25.1323 19.0233 24.2645 19.0233ZM9.03701 16.3737H22.6865V2.71762H9.03701V16.3737Z" fill="black"/>
</svg>
