<svg width="21" height="32" viewBox="0 0 21 32" fill="none" xmlns="http://www.w3.org/2000/svg">
<path d="M19.3361 23.0809H1.36169C0.612762 23.0809 0 22.4682 0 21.7192V19.132C0 17.2256 1.49786 15.7278 3.40423 15.7278H17.2935C19.1999 15.7278 20.6977 17.2256 20.6977 19.132V21.7192C20.6977 22.4682 20.085 23.0809 19.3361 23.0809ZM2.6553 20.3575H18.0424V19.0639C18.0424 18.6554 17.702 18.315 17.2935 18.315H3.40423C2.99573 18.315 2.6553 18.6554 2.6553 19.0639V20.3575Z" fill="black"/>
<path d="M1.36169 31.9999C0.612762 31.9999 0 31.3871 0 30.6382V21.7191C0 20.9702 0.612762 20.3574 1.36169 20.3574C2.11063 20.3574 2.72339 20.9702 2.72339 21.7191V30.6382C2.6553 31.3871 2.04254 31.9999 1.36169 31.9999Z" fill="black"/>
<path d="M19.3358 31.9999C18.5869 31.9999 17.9741 31.3871 17.9741 30.6382V21.7191C17.9741 20.9702 18.5869 20.3574 19.3358 20.3574C20.0847 20.3574 20.6975 20.9702 20.6975 21.7191V30.6382C20.6975 31.3871 20.0847 31.9999 19.3358 31.9999Z" fill="black"/>
<path d="M17.2253 18.3829H3.26794C2.85944 18.3829 2.51901 18.2467 2.24667 17.9063C1.97433 17.6339 1.90625 17.2254 1.90625 16.885L3.60837 1.15744C3.67645 0.476593 4.22113 0 4.90198 0H15.387C16.0679 0 16.6125 0.544678 16.6806 1.15744L18.5189 16.6807C18.5189 16.8169 18.587 16.885 18.587 17.0212C18.5189 17.7701 17.9742 18.3829 17.2253 18.3829ZM4.76581 15.7276H15.7274L14.2977 2.6553H6.19559L4.76581 15.7276Z" fill="black"/>
</svg>
