<svg width="34" height="32" viewBox="0 0 34 32" fill="none" xmlns="http://www.w3.org/2000/svg">
<path d="M31.4409 25.3628H1.39737C0.628818 25.3628 0 24.734 0 23.9654V16.4196C0 15.651 0.628818 15.0222 1.39737 15.0222H31.5108C32.2793 15.0222 32.9081 15.651 32.9081 16.4196V24.0353C32.8383 24.8038 32.2095 25.3628 31.4409 25.3628ZM2.72488 22.6379H30.1134V17.7471H2.72488V22.6379Z" fill="black"/>
<path d="M31.4408 32.0001C30.6723 32.0001 30.0435 31.3713 30.0435 30.6027V24.0351C30.0435 23.2665 30.6723 22.6377 31.4408 22.6377C32.2094 22.6377 32.8382 23.2665 32.8382 24.0351V30.6027C32.8382 31.3713 32.2094 32.0001 31.4408 32.0001Z" fill="black"/>
<path d="M1.39737 32.0001C0.628818 32.0001 0 31.3713 0 30.6027V24.0351C0 23.2665 0.628818 22.6377 1.39737 22.6377C2.16593 22.6377 2.79475 23.2665 2.79475 24.0351V30.6027C2.72488 31.3713 2.09606 32.0001 1.39737 32.0001Z" fill="black"/>
<path d="M16.4193 17.7469C11.5285 17.7469 7.47607 13.8343 7.47607 9.01334C7.47607 8.24478 8.10489 7.61597 8.87345 7.61597H23.9651C24.7336 7.61597 25.3624 8.24478 25.3624 9.01334C25.3624 13.8343 21.3101 17.7469 16.4193 17.7469ZM10.4106 10.4107C11.0394 13.0657 13.4848 15.022 16.4193 15.022C19.3537 15.022 21.7991 13.0657 22.428 10.4107H10.4106Z" fill="black"/>
<path d="M15.3014 3.00462L14.463 4.12252L15.8604 3.91291V4.54173L14.463 4.40199L15.3713 5.45002L14.8124 5.79936L14.2534 4.54173L13.6945 5.79936L13.2054 5.45002L14.0438 4.40199L12.7163 4.54173V3.91291L13.9041 4.12252L13.0657 3.00462L13.6246 2.65527L14.1835 3.91291L14.7425 2.65527L15.3014 3.00462Z" fill="black"/>
<path d="M13.6943 6.28851L12.5065 5.51996L13.1353 4.82127L12.2271 4.89114V3.56363L13.1353 3.6335L12.5065 2.86495L13.7642 2.23613L14.1834 3.07455L14.6026 2.16626L15.7904 2.86495L15.1615 3.6335L16.1397 3.56363V4.89114L15.2314 4.82127L15.7904 5.51996L14.5327 6.21864L14.1135 5.31035L13.6943 6.28851Z" fill="black"/>
<path d="M18.7946 4.40199L18.2357 5.10067L19.144 4.96094V5.38015L18.2357 5.31028L18.7946 6.00897L18.4453 6.21857L18.0959 5.38015L17.6767 6.21857L17.3274 6.00897L17.8863 5.31028L16.978 5.45002V5.03081L17.8165 5.17054L17.2575 4.47186L17.6068 4.26225L17.9562 5.03081L18.3055 4.19238L18.7946 4.40199Z" fill="black"/>
<path d="M17.8166 6.70743L16.8385 6.14848L17.1179 5.79914H16.6987V4.68124H17.1179L16.8385 4.3319L17.8865 3.77295L18.0961 4.19216L18.3057 3.77295L19.3537 4.3319L19.0044 4.68124H19.4935V5.79914H19.0743L19.3537 6.14848L18.3057 6.70743L18.0961 6.21835L17.8166 6.70743Z" fill="black"/>
<path d="M17.5373 0.69862L16.9783 1.39731L17.8866 1.32744V1.74665L16.9783 1.67678L17.5373 2.37547L17.1879 2.58507L16.8386 1.74665L16.4194 2.51521L16.07 2.3056L16.629 1.60691L15.7207 1.74665V1.32744L16.5591 1.46718L16.0002 0.768488L16.3495 0.558882L16.8386 1.32744L17.1879 0.489014L17.5373 0.69862Z" fill="black"/>
<path d="M16.5588 3.00435L15.5807 2.37553L15.8601 2.02619L15.4409 2.09606V0.908293L15.8601 0.978161L15.5807 0.628818L16.6287 0L16.8383 0.489081L17.0479 0L18.0959 0.628818L17.7466 0.978161L18.2357 0.908293V2.09606L17.8165 2.02619L18.0959 2.4454L17.0479 3.00435L16.8383 2.51527L16.5588 3.00435Z" fill="black"/>
</svg>
