<svg width="16" height="16" viewBox="0 0 16 16" fill="none" xmlns="http://www.w3.org/2000/svg">
<path d="M1.10558 2.72257L6.3764 8.86192C6.45522 8.95244 6.49901 9.06819 6.49985 9.1882V12.9173C6.49934 12.9696 6.51536 13.0206 6.54561 13.0632C6.57586 13.1058 6.61881 13.1378 6.66831 13.1545L9.17324 13.988C9.21068 14.0006 9.25056 14.004 9.28959 13.998C9.32861 13.992 9.36565 13.9768 9.39761 13.9537C9.42958 13.9305 9.45556 13.9 9.47339 13.8648C9.49123 13.8296 9.5004 13.7906 9.50015 13.7512V9.1882C9.50142 9.06799 9.54578 8.95221 9.62516 8.86192L14.8944 2.72257C14.9489 2.6591 14.9841 2.58135 14.9957 2.49851C15.0074 2.41567 14.9951 2.33123 14.9602 2.25519C14.9253 2.17915 14.8694 2.1147 14.799 2.06947C14.7287 2.02424 14.6468 2.00013 14.5631 2H1.43842C1.35464 1.99983 1.27256 2.02372 1.20196 2.06884C1.13136 2.11395 1.07519 2.17838 1.04014 2.25448C1.00508 2.33058 0.992614 2.41514 1.00421 2.49812C1.01581 2.5811 1.051 2.659 1.10558 2.72257Z" stroke="#343538" stroke-width="1.3" stroke-linecap="round" stroke-linejoin="round"/>
</svg>
