<svg width="16" height="16" viewBox="0 0 16 16" fill="none" xmlns="http://www.w3.org/2000/svg">
<path fill-rule="evenodd" clip-rule="evenodd" d="M8.00002 0C5.82733 0 5.5549 0.00920933 4.70161 0.0481423C3.8501 0.0869797 3.26855 0.222229 2.7597 0.420006C2.23363 0.624419 1.78748 0.897966 1.34271 1.34271C0.897966 1.78748 0.624419 2.23363 0.420006 2.7597C0.222229 3.26855 0.0869797 3.8501 0.0481423 4.70161C0.00920933 5.5549 0 5.82733 0 8.00002C0 10.1727 0.00920933 10.4451 0.0481423 11.2984C0.0869797 12.1499 0.222229 12.7314 0.420006 13.2403C0.624419 13.7664 0.897966 14.2125 1.34271 14.6573C1.78748 15.102 2.23363 15.3756 2.7597 15.58C3.26855 15.7778 3.8501 15.913 4.70161 15.9519C5.5549 15.9908 5.82733 16 8.00002 16C10.1727 16 10.4451 15.9908 11.2984 15.9519C12.1499 15.913 12.7314 15.7778 13.2403 15.58C13.7664 15.3756 14.2125 15.102 14.6573 14.6573C15.102 14.2125 15.3756 13.7664 15.58 13.2403C15.7778 12.7314 15.913 12.1499 15.9519 11.2984C15.9908 10.4451 16 10.1727 16 8.00002C16 5.82733 15.9908 5.5549 15.9519 4.70161C15.913 3.8501 15.7778 3.26855 15.58 2.7597C15.3756 2.23363 15.102 1.78748 14.6573 1.34271C14.2125 0.897966 13.7664 0.624419 13.2403 0.420006C12.7314 0.222229 12.1499 0.0869797 11.2984 0.0481423C10.4451 0.00920933 10.1727 0 8.00002 0ZM8.00003 1.44144C10.1361 1.44144 10.3891 1.4496 11.2327 1.48809C12.0127 1.52365 12.4363 1.65398 12.7182 1.76354C13.0916 1.90867 13.3581 2.08202 13.638 2.36198C13.918 2.64191 14.0913 2.90841 14.2365 3.28183C14.346 3.56373 14.4764 3.98732 14.5119 4.76731C14.5504 5.61088 14.5586 5.86391 14.5586 8.00002C14.5586 10.1361 14.5504 10.3891 14.5119 11.2327C14.4764 12.0127 14.346 12.4363 14.2365 12.7182C14.0913 13.0916 13.918 13.3581 13.638 13.638C13.3581 13.918 13.0916 14.0913 12.7182 14.2365C12.4363 14.346 12.0127 14.4763 11.2327 14.5119C10.3893 14.5504 10.1363 14.5586 8.00003 14.5586C5.86377 14.5586 5.6108 14.5504 4.76732 14.5119C3.98733 14.4763 3.56374 14.346 3.28184 14.2365C2.90842 14.0913 2.64193 13.918 2.362 13.638C2.08207 13.3581 1.90868 13.0916 1.76355 12.7182C1.654 12.4363 1.52367 12.0127 1.4881 11.2327C1.44961 10.3891 1.44145 10.1361 1.44145 8.00002C1.44145 5.86391 1.44961 5.61088 1.4881 4.76731C1.52367 3.98732 1.654 3.56373 1.76355 3.28183C1.90868 2.90841 2.08204 2.64191 2.362 2.36198C2.64193 2.08202 2.90842 1.90867 3.28184 1.76354C3.56374 1.65398 3.98733 1.52365 4.76732 1.48809C5.61089 1.4496 5.86392 1.44144 8.00003 1.44144ZM3.89191 8.00002C3.89191 5.73114 5.73115 3.89189 8.00003 3.89189C10.2689 3.89189 12.1081 5.73114 12.1081 8.00002C12.1081 10.2689 10.2689 12.1081 8.00003 12.1081C5.73115 12.1081 3.89191 10.2689 3.89191 8.00002ZM8.00003 10.6667C6.52724 10.6667 5.33334 9.47276 5.33334 8.00001C5.33334 6.52723 6.52724 5.33333 8.00003 5.33333C9.47278 5.33333 10.6667 6.52723 10.6667 8.00001C10.6667 9.47276 9.47278 10.6667 8.00003 10.6667ZM12.2704 4.68955C12.8006 4.68955 13.2304 4.25977 13.2304 3.72957C13.2304 3.19937 12.8006 2.76955 12.2704 2.76955C11.7403 2.76955 11.3104 3.19937 11.3104 3.72957C11.3104 4.25977 11.7403 4.68955 12.2704 4.68955Z" fill="#737680"/>
</svg>
