<svg width="25" height="32" viewBox="0 0 25 32" fill="none" xmlns="http://www.w3.org/2000/svg">
<path d="M23.1063 15.5234H1.31915C0.910636 15.5234 0.502127 15.3191 0.229787 14.9787C0.025532 14.6383 -0.0425531 14.1617 0.0255318 13.7532L3.90637 0.953189C4.04254 0.40851 4.58722 0 5.19999 0H19.2255C19.8383 0 20.3148 0.40851 20.5191 0.953189L24.3319 13.617C24.3999 13.8212 24.468 13.9574 24.468 14.1617C24.3999 14.9106 23.8553 15.5234 23.1063 15.5234ZM3.15744 12.8H21.3361L18.2042 2.65531H6.22126L3.15744 12.8Z" fill="black"/>
<path d="M12.2129 22.8083C7.78743 22.8083 4.11084 19.1998 4.11084 14.7062C4.11084 13.9572 4.7236 13.3445 5.47254 13.3445C6.22147 13.3445 6.83424 13.9572 6.83424 14.7062C6.83424 17.7019 9.2853 20.0849 12.2129 20.0849C15.1406 20.0849 17.5917 17.6338 17.5917 14.7062C17.5917 13.9572 18.2044 13.3445 18.9534 13.3445C19.7023 13.3445 20.3151 13.9572 20.3151 14.7062C20.247 19.1998 16.6385 22.8083 12.2129 22.8083Z" fill="black"/>
<path d="M12.2128 32.0001C11.4638 32.0001 10.8511 31.3873 10.8511 30.6384V26.9618C10.8511 26.2129 11.4638 25.6001 12.2128 25.6001C12.9617 25.6001 13.5745 26.2129 13.5745 26.9618V30.6384C13.5064 31.3873 12.9617 32.0001 12.2128 32.0001Z" fill="black"/>
<path d="M19.4982 30.0256C19.0216 30.0256 18.4769 29.7532 18.2726 29.2085L16.7748 25.8724C16.5024 25.1915 16.7748 24.4426 17.4556 24.1022C18.1365 23.8298 18.8854 24.1022 19.2258 24.783L20.7237 28.1192C20.996 28.8 20.7237 29.549 20.0429 29.8894C19.8386 30.0256 19.6343 30.0256 19.4982 30.0256Z" fill="black"/>
<path d="M4.92755 30.0256C4.72329 30.0256 4.58712 29.9575 4.38287 29.8894C3.70202 29.617 3.42968 28.8 3.70202 28.1192L5.19989 24.783C5.47223 24.1022 6.28925 23.8298 6.9701 24.1022C7.65095 24.3745 7.92329 25.1915 7.65095 25.8724L6.15308 29.2085C5.94882 29.7532 5.47223 30.0256 4.92755 30.0256Z" fill="black"/>
</svg>
