<svg width="32" height="30" viewBox="0 0 32 30" fill="none" xmlns="http://www.w3.org/2000/svg">
<path d="M15.9999 6.47691L14.9772 5.02098C14.4397 4.25585 13.8389 3.61319 13.1885 3.09542L13.1885 3.09537C11.9134 2.08025 10.4944 1.58081 8.93921 1.58081C6.82542 1.58081 4.89022 2.44664 3.46956 4.03274L15.9999 6.47691ZM15.9999 6.47691L17.0228 5.02103M15.9999 6.47691L17.0228 5.02103M17.0228 5.02103C17.5605 4.25565 18.161 3.61322 18.8112 3.09543L17.0228 5.02103ZM11.943 24.993L11.943 24.993L11.9476 24.997C13.0467 25.9613 14.2986 27.0597 15.5992 28.2303L15.6 28.231C15.7156 28.3353 15.8576 28.3879 16 28.3879C16.1425 28.3879 16.2847 28.335 16.3996 28.2314L16.4002 28.2309C17.6915 27.0684 18.9355 25.9769 20.0293 25.0172L20.0577 24.9923L20.0578 24.9922C23.3088 22.1404 25.9984 19.7756 27.8527 17.4722L27.8528 17.4721C29.8831 14.9503 30.75 12.6684 30.75 10.2304C30.75 7.79745 29.9402 5.60721 28.5303 4.03286L11.943 24.993ZM11.943 24.993C8.69153 22.1407 6.00186 19.7757 4.14751 17.4724M11.943 24.993L4.14751 17.4724M4.14751 17.4724C2.11706 14.9503 1.25 12.6683 1.25 10.2306C1.25 7.79747 2.05978 5.60722 3.46946 4.03286L4.14751 17.4724ZM23.0608 1.58081C25.1746 1.58081 27.1096 2.44663 28.5303 4.03281L18.8114 3.0953C20.0867 2.08019 21.5057 1.58081 23.0608 1.58081Z" stroke="black" stroke-width="2.5"/>
</svg>
