<svg width="32" height="32" viewBox="0 0 32 32" fill="none" xmlns="http://www.w3.org/2000/svg">
<g clip-path="url(#clip10)">
<path d="M20.3377 12.2727L20.3378 12.2726C21.6018 11.0086 22.2295 9.49328 22.2295 7.70703C22.2295 5.92169 21.6019 4.4061 20.3377 3.1416C20.3376 3.14152 20.3376 3.14145 20.3375 3.14138M20.3377 12.2727L20.3375 3.14138M20.3377 12.2727C19.0738 13.5368 17.558 14.1646 15.772 14.1646C13.9866 14.1646 12.4709 13.5367 11.2066 12.2728M20.3377 12.2727L11.2066 12.2728M20.3375 3.14138C19.0732 1.87765 17.5576 1.25 15.772 1.25C13.9857 1.25 12.4704 1.87772 11.2064 3.1417C9.94234 4.40575 9.31445 5.92138 9.31445 7.70703C9.31445 9.4932 9.94236 11.0088 11.2066 12.2728M20.3375 3.14138L11.2066 12.2728" stroke="black" stroke-width="2.5"/>
<path d="M28.0111 24.6939L28.011 24.6929C27.9714 24.1214 27.8905 23.4866 27.7684 22.8053L28.0111 24.6939ZM28.0111 24.6939C28.0517 25.2725 28.0725 25.8793 28.0728 26.4966L28.0111 24.6939ZM27.311 20.9327L27.3109 20.9325C27.1314 20.3714 26.8856 19.8124 26.5791 19.2733L27.6658 18.6555L26.5791 19.2733C26.2715 18.7322 25.9201 18.2786 25.5416 17.9166L25.5414 17.9164C25.172 17.5629 24.7043 17.2636 24.1354 17.0381L27.311 20.9327ZM27.311 20.9327C27.4924 21.4993 27.6471 22.1291 27.7684 22.8049L27.311 20.9327ZM21.7135 17.0363C21.3342 17.2837 20.8919 17.5688 20.3996 17.8834L20.3983 17.8843C19.8576 18.2288 19.1813 18.5183 18.4223 18.7635C17.62 19.023 16.7957 19.1577 15.9731 19.1577C15.1504 19.1577 14.3263 19.0229 13.5235 18.7635L21.7135 17.0363ZM21.7135 17.0363C22.0012 16.849 22.1592 16.7644 22.2522 16.725C22.275 16.7153 22.2896 16.7101 22.2979 16.7075C22.9829 16.7091 23.5979 16.8255 24.1351 17.038L21.7135 17.0363ZM11.5482 17.8842L11.5474 17.8836C11.0595 17.5719 10.6169 17.2866 10.232 17.0359L10.2317 17.0357C9.94464 16.8486 9.78688 16.7641 9.69405 16.7247C9.67131 16.715 9.6567 16.7099 9.64846 16.7073C8.96333 16.7088 8.34863 16.8254 7.81165 17.0381L7.81145 17.0382C7.24314 17.2632 6.77518 17.5624 6.4052 17.9163L11.5482 17.8842ZM11.5482 17.8842C12.0887 18.2289 12.7651 18.5185 13.5233 18.7634L11.5482 17.8842ZM5.36795 19.2728L5.36788 19.2729C5.06152 19.8122 4.81567 20.3711 4.63591 20.9325L5.36795 19.2728ZM5.36795 19.2728C5.6746 18.7328 6.02609 18.2794 6.40495 17.9166L5.36795 19.2728ZM3.93599 24.6934L3.93597 24.6937C3.89558 25.2759 3.875 25.8825 3.875 26.4968C3.875 27.8827 4.30461 28.8871 5.06483 29.6113L3.93599 24.6934ZM3.93599 24.6934C3.97561 24.1204 4.0566 23.4854 4.17858 22.8053L3.93599 24.6934ZM26.8827 29.6113L26.8827 29.6113C27.6428 28.8881 28.0727 27.8839 28.0728 26.4971L26.8827 29.6113ZM26.8827 29.6113C26.1188 30.3383 25.0781 30.7502 23.678 30.7502H8.26978C6.8699 30.7502 5.82882 30.3381 5.06522 29.6117L26.8827 29.6113ZM22.3064 16.7052C22.3064 16.7053 22.3052 16.7056 22.3032 16.7059C22.3055 16.7053 22.3065 16.7052 22.3064 16.7052ZM9.63993 16.705C9.63988 16.7049 9.6409 16.7051 9.64317 16.7057C9.64112 16.7053 9.63999 16.705 9.63993 16.705ZM4.17861 22.8052C4.29988 22.1296 4.4545 21.4998 4.6358 20.9329L4.17861 22.8052ZM29.3228 26.4966C29.3225 25.8518 29.3008 25.2158 29.2581 24.6064L29.3228 26.4966Z" stroke="black" stroke-width="2.5"/>
</g>
<defs>
<clipPath id="clip10">
<rect width="32" height="32.0001" fill="white"/>
</clipPath>
</defs>
</svg>
