<svg width="41" height="72" viewBox="0 0 41 72" fill="none" xmlns="http://www.w3.org/2000/svg">
<path d="M10.6802 21.3176C10.95 22.2733 11.7592 22.9901 12.7182 23.1693L25.066 25.2599C25.2159 25.2898 25.3657 25.2898 25.5156 25.2898C26.4447 25.2898 27.2838 24.7821 27.7334 24.0056C28.1829 23.1992 28.1829 22.2435 27.7334 21.4371L24.2868 15.5535L24.6464 13.4928C24.9461 11.7307 23.9871 9.99847 22.3387 9.31155L22.3687 9.16222C22.9381 5.19006 26.5046 2.32293 30.5206 2.62159C34.5367 2.92025 37.6536 6.23536 37.6536 10.2374V67.7591C37.6536 68.4759 38.223 69.0433 38.9423 69.0433C39.6616 69.0433 40.231 68.4759 40.231 67.7591V10.3569C40.231 4.95113 36.0652 0.381649 30.6705 0.0232579C25.3358 -0.335133 20.6004 3.4877 19.8512 8.77396L19.7912 9.16222C18.3826 9.58034 17.3337 10.7451 17.0639 12.2085L16.7043 14.2693L11.5194 18.7193C10.7402 19.3465 10.4105 20.3619 10.6802 21.3176ZM22.0989 13.0448L21.8892 14.2992L19.3417 13.881L19.5515 12.6267C19.6713 11.9995 20.1808 11.5515 20.8102 11.5515C20.8702 11.5515 20.9601 11.5515 21.02 11.5814C21.7393 11.671 22.2188 12.328 22.0989 13.0448ZM13.1378 20.6307L18.2328 16.3002L22.1289 16.9572L25.5156 22.7213L13.1378 20.6307Z" fill="#020203"/>
<path d="M17.7231 72C27.1413 72 34.7762 70.6629 34.7762 69.0134C34.7762 67.364 27.1413 66.0269 17.7231 66.0269C8.30488 66.0269 0.669922 67.364 0.669922 69.0134C0.669922 70.6629 8.30488 72 17.7231 72Z" fill="#F18700"/>
<path d="M30.79 49.0331C30.4303 49.0331 30.1007 49.063 29.801 49.1526L30.4903 41.4472C30.73 38.6697 28.722 36.1609 25.9348 35.7727C23.657 35.4442 20.3603 35.0559 17.663 35.0559C14.9956 35.0559 11.7588 35.4442 9.51101 35.7727C6.75373 36.1908 4.74571 38.6697 4.98548 41.4472L5.67479 49.1526C5.34512 49.063 5.01545 49.0331 4.68577 49.0331C2.46796 49.0331 0.699707 50.8251 0.699707 53.0053C0.699707 58.5604 4.23621 62.204 5.82465 63.5778L4.74571 67.3111C4.53592 68.0279 4.95551 68.7446 5.64483 68.9537C5.76471 68.9836 5.88459 69.0134 6.00447 69.0134C6.57391 69.0134 7.11338 68.6252 7.2932 68.0577L8.34216 64.4439H27.1336L28.1826 68.0577C28.3624 68.6252 28.8719 69.0134 29.4713 69.0134C29.5912 69.0134 29.7111 68.9836 29.8309 68.9537C30.5502 68.7446 30.9398 68.0279 30.7301 67.3111L29.4114 62.7416C29.2315 62.1443 28.6921 61.756 28.0927 61.7859H28.0627H7.80269C7.35314 61.4275 6.51396 60.6808 5.67479 59.6057C4.11633 57.5748 3.3371 55.3647 3.3371 53.0352C3.3371 52.2885 3.93651 51.7211 4.6558 51.7211C5.37509 51.7211 5.9745 52.3184 5.9745 53.0352C5.9745 53.0949 5.9745 53.1546 5.9745 53.1845L6.06441 53.961C6.09438 54.7973 6.48399 55.5738 7.11337 56.1114C7.80269 56.6788 8.67184 56.8879 9.54098 56.7385C12.7178 56.1412 15.4751 55.8426 17.6929 55.8426C19.9107 55.8426 22.638 56.1412 25.8449 56.7385C26.714 56.8879 27.5832 56.6788 28.2725 56.1114C28.9318 55.5738 29.3214 54.7973 29.3214 53.961L29.4114 53.1845C29.4114 53.1248 29.4114 53.0949 29.4114 53.0352C29.4114 52.2885 30.0108 51.7211 30.7301 51.7211C31.4793 51.7211 32.0487 52.3184 32.0487 53.0352C32.0487 54.6479 31.6591 56.2607 30.9099 57.754C30.5802 58.411 30.8499 59.2174 31.5093 59.5459C32.1686 59.8745 32.9778 59.6057 33.3075 58.9486C34.2666 57.0671 34.7461 55.0959 34.7461 53.0352C34.7761 50.8251 33.0078 49.0331 30.79 49.0331ZM27.8229 41.2083L26.684 53.7221C26.684 53.752 26.684 53.7818 26.684 53.8416C26.684 53.9312 26.6241 54.0207 26.5941 54.0506C26.5642 54.0805 26.4743 54.1402 26.3843 54.1103C23.0277 53.4832 20.1205 53.1546 17.7529 53.1546C15.3552 53.1546 12.4481 53.4832 9.12139 54.1103C9.03148 54.1402 8.94157 54.0805 8.9116 54.0506C8.88163 54.0207 8.82169 53.961 8.82169 53.8416C8.82169 53.8117 8.82169 53.7818 8.82169 53.7221L7.68281 41.2083C7.56293 39.8046 8.55195 38.5801 9.96056 38.371C12.1184 38.0425 15.2054 37.6841 17.7229 37.6841C20.2704 37.6841 23.4173 38.0724 25.6051 38.4009C26.9538 38.5801 27.9428 39.8345 27.8229 41.2083Z" fill="#020203"/>
</svg>
