<svg width="100" height="44" viewBox="0 0 100 44" fill="none" xmlns="http://www.w3.org/2000/svg">
<path d="M6.06529 12.9885C6.22711 13.5722 6.71256 14.0103 7.31074 14.1122L14.8053 15.3776C14.8926 15.3922 14.9817 15.4012 15.0707 15.4012C15.6289 15.3976 16.1435 15.0976 16.4198 14.614C16.6962 14.1303 16.6944 13.534 16.4144 13.0522L14.3253 9.4667L14.538 8.20488C14.7235 7.13215 14.1362 6.07397 13.1289 5.65761L13.1435 5.56306C13.4907 3.14488 15.6453 1.40488 18.0835 1.57761C20.5198 1.75034 22.4089 3.77761 22.4107 6.22124V41.2358C22.4107 41.6667 22.7598 42.0158 23.1907 42.0158C23.6217 42.0158 23.9707 41.6667 23.9707 41.2358V6.31215C23.9707 3.02124 21.4489 0.233972 18.1671 0.0139721C14.9235 -0.202392 12.0562 2.11761 11.5962 5.33943L11.5617 5.57579C10.7053 5.8267 10.0671 6.54306 9.9162 7.42306L9.70347 8.68306L6.55256 11.3849C6.09256 11.7794 5.90347 12.4031 6.06529 12.9885ZM12.998 7.94306L12.8671 8.71216L11.3271 8.45215L11.458 7.68306C11.5217 7.30852 11.8471 7.03397 12.2271 7.03215C12.2707 7.03215 12.3144 7.03579 12.358 7.04125C12.7835 7.11579 13.0689 7.51761 12.998 7.94306ZM7.56347 12.5685L10.658 9.92306L13.0162 10.3231L15.0635 13.8376L7.57074 12.5703L7.56347 12.5685Z" fill="black"/>
<path d="M20.6909 42.0175C20.6909 43.0212 16.06 43.8339 10.3455 43.8339C4.63273 43.8339 0 43.0212 0 42.0175C0 41.0139 4.63091 40.2012 10.3455 40.2012C16.0582 40.2012 20.6909 41.0139 20.6909 42.0175Z" fill="#DD8444"/>
<path d="M18.2656 29.8523C18.0565 29.8523 17.851 29.8795 17.6583 29.9304L18.0801 25.2413C18.0801 25.2395 18.0801 25.2377 18.0801 25.2359C18.2201 23.5395 17.0092 22.0177 15.3256 21.7723C13.9383 21.5686 11.9401 21.3286 10.3056 21.3286C8.67832 21.3286 6.71832 21.5686 5.36014 21.7686C3.68014 22.0177 2.47286 23.5377 2.61104 25.2304C2.61104 25.2322 2.61104 25.2341 2.61104 25.2359L3.03468 29.9304C2.84013 29.8795 2.6365 29.8523 2.42559 29.8523C1.08923 29.8523 0.00195312 30.9395 0.00195312 32.2759C0.00195312 35.665 2.14013 37.8813 3.11468 38.7159L2.45832 40.9813C2.33468 41.4104 2.58013 41.8577 3.00922 41.9832C3.08377 42.005 3.16013 42.0159 3.23468 42.0159C3.58559 42.0159 3.90741 41.7868 4.01104 41.4323L4.65104 39.2268H16.0438L16.6838 41.4323C16.7856 41.7868 17.1092 42.0159 17.4601 42.0159C17.5347 42.0159 17.611 42.005 17.6856 41.9832C18.1147 41.8595 18.3601 41.4104 18.2365 40.9813L17.4274 38.1941C17.3238 37.8341 16.9892 37.6032 16.631 37.6122C16.6238 37.6122 16.6183 37.6104 16.611 37.6104H4.3165C4.05104 37.3959 3.53832 36.9432 3.03468 36.2813C2.09468 35.0486 1.61832 33.7013 1.61832 32.2759C1.61832 31.8304 1.98013 31.4686 2.42741 31.4686C2.87468 31.4686 3.2365 31.8304 3.2365 32.2759C3.2365 32.3086 3.23832 32.3395 3.24195 32.3722L3.2965 32.8377C3.31286 33.3486 3.54377 33.825 3.94013 34.1522C4.34922 34.4904 4.88559 34.6286 5.40741 34.5286C7.34013 34.1613 9.00195 33.9741 10.3474 33.9741C11.6929 33.9741 13.3565 34.1613 15.2874 34.5286C15.811 34.6286 16.3456 34.4904 16.7547 34.1522C17.1492 33.825 17.382 33.3486 17.3983 32.8377L17.4529 32.3722C17.4565 32.3413 17.4583 32.3086 17.4583 32.2759C17.4583 31.8304 17.8201 31.4686 18.2656 31.4686C18.711 31.4686 19.0747 31.8304 19.0747 32.2759C19.0747 33.2668 18.8401 34.2304 18.3765 35.1432C18.1747 35.5413 18.3329 36.0268 18.731 36.2304C19.1292 36.4322 19.6147 36.2741 19.8165 35.8759C20.3965 34.7341 20.6892 33.5232 20.6892 32.2777C20.691 30.9395 19.6038 29.8523 18.2656 29.8523ZM16.4692 25.0977L15.7838 32.7086C15.7838 32.7104 15.7838 32.7141 15.7838 32.7159C15.782 32.7377 15.7801 32.7595 15.7801 32.7813C15.7801 32.845 15.7474 32.8832 15.722 32.905C15.6947 32.9268 15.6492 32.9522 15.5874 32.9395C13.5565 32.5522 11.7929 32.3559 10.3456 32.3559C8.89832 32.3559 7.13468 32.5522 5.10195 32.9395C5.04013 32.9522 4.99468 32.9268 4.96741 32.905C4.94013 32.8832 4.90922 32.8432 4.90922 32.7813C4.90922 32.7595 4.90741 32.7377 4.90559 32.7159C4.90559 32.7141 4.90559 32.7104 4.90559 32.7086L4.22013 25.0922C4.15286 24.2468 4.75468 23.4868 5.59468 23.3632C6.90013 23.1704 8.77468 22.9413 10.3038 22.9413C11.842 22.9413 13.7565 23.1741 15.091 23.3686C15.9329 23.4922 16.5383 24.2504 16.4692 25.0977Z" fill="black"/>
<path d="M35.1707 25.5236C35.0253 25.4 34.958 25.2327 34.958 25.0527C34.958 24.7054 35.238 24.4127 35.5871 24.4127C35.7326 24.4127 35.8671 24.4582 36.0253 24.5818C36.3507 24.8618 36.7544 25.0745 37.238 25.0745C37.6198 25.0745 37.9453 24.9291 37.9453 24.6145C37.9453 24.3563 37.7089 24.2545 37.3726 24.1091L36.778 23.8618C35.8362 23.48 35.2635 23.0418 35.2635 22.1672C35.2635 21.1018 36.1271 20.4963 37.3053 20.4963C37.9671 20.4963 38.6071 20.7091 39.0562 21.0909C39.2362 21.2254 39.3253 21.4054 39.3253 21.6072C39.3253 21.9545 39.0453 22.2363 38.7089 22.2363C38.5744 22.2363 38.4398 22.1691 38.3053 22.08C38.0144 21.8782 37.6653 21.7436 37.2962 21.7436C36.938 21.7436 36.7016 21.8673 36.7016 22.1363C36.7016 22.3618 36.8816 22.4727 37.2853 22.6309L37.8235 22.8545C38.8216 23.2582 39.3835 23.6854 39.3835 24.5491C39.3835 25.6945 38.4289 26.3218 37.218 26.3218C36.3835 26.32 35.6653 26.0072 35.1707 25.5236Z" fill="black"/>
<path d="M41.3311 23.4038C41.3311 21.7765 42.6329 20.5093 44.3038 20.5093C45.2456 20.5093 46.122 20.9584 46.5474 21.6093C46.6474 21.7656 46.682 21.8893 46.682 22.0129C46.682 22.3838 46.3783 22.6856 46.0092 22.6856C45.7965 22.6856 45.6274 22.6184 45.4929 22.4493C45.2129 22.1129 44.8201 21.8875 44.3256 21.8875C43.4729 21.8875 42.8674 22.5166 42.8674 23.402C42.8674 24.3002 43.4729 24.9275 44.3256 24.9275C44.8074 24.9275 45.1892 24.7038 45.4929 24.3675C45.6492 24.1875 45.8074 24.1311 46.0092 24.1311C46.3802 24.1311 46.682 24.4347 46.682 24.8038C46.682 24.9384 46.6492 25.0511 46.5583 25.1856C46.0983 25.8929 45.2911 26.3184 44.302 26.3184C42.6329 26.3202 41.3311 25.0311 41.3311 23.4038Z" fill="black"/>
<path d="M53.6164 22.8871V25.558C53.6164 25.9962 53.3019 26.3089 52.8873 26.3089C52.5164 26.3089 52.2255 26.0616 52.1582 25.7253C51.7546 26.1071 51.1928 26.3198 50.531 26.3198C49.3855 26.3198 48.6128 25.6471 48.6128 24.6598C48.6128 23.6616 49.4092 23.0434 50.711 23.0434H52.1019V22.7962C52.1019 22.1798 51.731 21.8198 51.0582 21.8198C50.6655 21.8198 50.3182 21.9544 49.9928 22.2344C49.8128 22.3689 49.6892 22.4144 49.5437 22.4144C49.1728 22.4144 48.8928 22.1344 48.8928 21.798C48.8928 21.5853 49.0055 21.3834 49.2073 21.1925C49.6782 20.7544 50.4073 20.5071 51.2164 20.5071C52.7419 20.5089 53.6164 21.3725 53.6164 22.8871ZM52.1019 24.1107V24.0434H50.9128C50.4073 24.0434 50.1382 24.2344 50.1382 24.6053C50.1382 24.9762 50.4419 25.2107 50.9346 25.2107C51.5982 25.2089 52.1019 24.738 52.1019 24.1107Z" fill="black"/>
<path d="M56.1421 23.7398V21.2707C56.1421 20.8325 56.4675 20.5071 56.9057 20.5071C57.333 20.5071 57.6585 20.8325 57.6585 21.2707V23.8634C57.6585 24.4798 58.0966 24.9289 58.713 24.9289C59.3185 24.9289 59.7457 24.4798 59.7457 23.8634V21.2707C59.7457 20.8325 60.0603 20.5071 60.5094 20.5071C60.9367 20.5071 61.2603 20.8325 61.2603 21.2707V23.7398C61.2603 25.2653 60.2057 26.3198 58.713 26.3198C57.1966 26.3198 56.1421 25.2653 56.1421 23.7398Z" fill="black"/>
<path d="M68.933 22.742V25.5475C68.933 25.9965 68.6184 26.322 68.1802 26.322C67.7548 26.322 67.4293 25.9856 67.4293 25.5475V22.9438C67.4293 22.3038 67.0148 21.8675 66.3966 21.8675C65.7802 21.8675 65.3421 22.3165 65.3421 22.9438V25.5475C65.3421 25.9965 65.0166 26.322 64.5893 26.322C64.1511 26.322 63.8257 25.9856 63.8257 25.5475V21.2729C63.8257 20.8347 64.1511 20.5093 64.5784 20.5093C64.9257 20.5093 65.2075 20.7456 65.2857 21.082C65.6784 20.722 66.2275 20.5093 66.8457 20.5093C68.113 20.5093 68.933 21.3838 68.933 22.742Z" fill="black"/>
<path d="M76.7201 23.1107V23.1434C76.7201 23.6144 76.3837 23.918 75.8892 23.918H72.7255C72.9055 24.6144 73.4655 25.018 74.2855 25.018C74.6891 25.018 75.1055 24.9053 75.4419 24.6925C75.5546 24.6253 75.6546 24.5907 75.7673 24.5907C76.1146 24.5907 76.3837 24.8489 76.3837 25.1962C76.3837 25.4434 76.271 25.6234 76.0019 25.8016C75.4964 26.138 74.891 26.318 74.2401 26.318C72.4891 26.318 71.1982 25.0725 71.1982 23.4125C71.1982 21.7634 72.4437 20.5071 74.0819 20.5071C75.5964 20.5089 76.7201 21.6071 76.7201 23.1107ZM72.7255 22.8525H75.251C75.2291 22.1907 74.7564 21.7307 74.0492 21.7307C73.3873 21.7307 72.8928 22.1689 72.7255 22.8525Z" fill="black"/>
<path d="M78.7383 25.2763C78.7383 24.7036 79.1874 24.2327 79.7928 24.2327C80.3874 24.2327 80.8255 24.7036 80.8255 25.2763C80.8255 25.8599 80.3874 26.3199 79.7928 26.3199C79.1874 26.3199 78.7383 25.8599 78.7383 25.2763Z" fill="black"/>
<path d="M91.7311 22.742V25.5475C91.7311 25.9965 91.4057 26.322 90.9784 26.322C90.5402 26.322 90.2166 25.9856 90.2166 25.5475V22.9547C90.2166 22.2929 89.8348 21.8784 89.2293 21.8784C88.6238 21.8784 88.2093 22.3056 88.2093 22.922V25.5475C88.2093 25.9965 87.8838 26.322 87.4566 26.322C87.0184 26.322 86.6929 25.9856 86.6929 25.5475V22.9547C86.6929 22.2929 86.3002 21.8784 85.7057 21.8784C85.0893 21.8784 84.6838 22.3056 84.6838 22.9547V25.5475C84.6838 25.9965 84.3584 26.322 83.9311 26.322C83.4929 26.322 83.1675 25.9856 83.1675 25.5475V21.2729C83.1675 20.8347 83.4929 20.5093 83.9202 20.5093C84.2675 20.5093 84.5366 20.7329 84.6275 21.0693C85.0093 20.7111 85.5257 20.5093 86.1311 20.5093C86.8493 20.5093 87.422 20.7893 87.7802 21.3056C88.2184 20.8111 88.8911 20.5093 89.6311 20.5093C90.9238 20.5093 91.7311 21.3729 91.7311 22.742Z" fill="black"/>
<path d="M99.8545 18.411V25.5583C99.8545 25.9965 99.54 26.3201 99.1145 26.3201C98.7218 26.3201 98.3964 26.0056 98.3746 25.6128C97.9927 26.0619 97.3982 26.3201 96.68 26.3201C95.12 26.3201 93.9873 25.0965 93.9873 23.4147C93.9873 21.731 95.12 20.5092 96.68 20.5092C97.3764 20.5092 97.96 20.7565 98.34 21.171V18.411C98.34 17.9728 98.6655 17.6365 99.1036 17.6365C99.5291 17.6365 99.8545 17.9619 99.8545 18.411ZM98.3618 23.4147C98.3618 22.5056 97.7891 21.8783 96.96 21.8783C96.1291 21.8783 95.5237 22.5292 95.5237 23.4037C95.5237 24.3019 96.1182 24.9401 96.96 24.9401C97.8018 24.9401 98.3618 24.3237 98.3618 23.4147Z" fill="black"/>
</svg>
