<svg width="20" height="20" viewBox="0 0 20 20" fill="none" xmlns="http://www.w3.org/2000/svg">
<path d="M14.375 9.375H7.75876L10.3343 6.79938C10.5788 6.555 10.5788 6.15938 10.3343 5.91562C10.09 5.67124 9.69438 5.67124 9.45062 5.91562L5.915 9.45124C5.76562 9.60062 5.71876 9.80624 5.7531 10C5.71873 10.1938 5.76562 10.3994 5.91562 10.5494L9.45124 14.085C9.69562 14.3294 10.0912 14.3294 10.335 14.085C10.5794 13.8406 10.5794 13.445 10.335 13.2012L7.75876 10.625H14.375C14.72 10.625 15 10.345 15 10C15 9.655 14.72 9.375 14.375 9.375ZM10 0C4.47686 0 0 4.47686 0 10C0 15.5225 4.47686 20 10 20C15.5231 20 20 15.5225 20 10C20 4.47686 15.5231 0 10 0ZM10 18.75C5.16748 18.75 1.25 14.8325 1.25 10C1.25 5.16748 5.16748 1.25 10 1.25C14.8325 1.25 18.75 5.16748 18.75 10C18.75 14.8325 14.8325 18.75 10 18.75Z" fill="black"/>
</svg>
