<svg width="20" height="20" viewBox="0 0 20 20" fill="none" xmlns="http://www.w3.org/2000/svg">
<path d="M14.085 9.45062L10.5494 5.915C10.305 5.67062 9.90941 5.67062 9.66565 5.915C9.42128 6.15938 9.42128 6.555 9.66565 6.79876L12.2413 9.375H5.625C5.28 9.375 5 9.655 5 10C5 10.345 5.28 10.625 5.625 10.625H12.2412L9.66562 13.2006C9.42124 13.445 9.42124 13.8406 9.66562 14.0843C9.91 14.3288 10.3056 14.3288 10.5493 14.0843L14.085 10.5488C14.235 10.3988 14.2812 10.1938 14.2475 9.99938C14.2812 9.80624 14.2344 9.60062 14.085 9.45062ZM10 0C4.47686 0 0 4.47686 0 10C0 15.5231 4.47686 20 10 20C15.5231 20 20 15.5225 20 10C20 4.47752 15.5231 0 10 0ZM10 18.75C5.16748 18.75 1.25 14.8325 1.25 10C1.25 5.16748 5.16748 1.25 10 1.25C14.8325 1.25 18.75 5.16748 18.75 10C18.75 14.8325 14.8325 18.75 10 18.75Z" fill="black"/>
</svg>
