<svg width="20" height="20" viewBox="0 0 20 20" fill="none" xmlns="http://www.w3.org/2000/svg">
<path d="M19.8281 18.9811L14.9664 14.1205C16.2706 12.6215 17.0602 10.6658 17.0602 8.52818C17.0602 3.82283 13.232 0 8.53008 0C3.82367 0 0 3.82726 0 8.52818C0 13.2291 3.82811 17.0564 8.53008 17.0564C10.6681 17.0564 12.6243 16.267 14.1236 14.9631L18.9853 19.8237C19.1006 19.939 19.2559 20.0011 19.4067 20.0011C19.5575 20.0011 19.7128 19.9434 19.8281 19.8237C20.0588 19.5931 20.0588 19.2117 19.8281 18.9811ZM1.19323 8.52818C1.19323 4.48362 4.48461 1.1974 8.52564 1.1974C12.5711 1.1974 15.858 4.48805 15.858 8.52818C15.858 12.5683 12.5711 15.8634 8.52564 15.8634C4.48461 15.8634 1.19323 12.5728 1.19323 8.52818Z" fill="#A3A5AD"/>
</svg>
