<svg width="32" height="32" viewBox="0 0 32 32" fill="none" xmlns="http://www.w3.org/2000/svg">
<path d="M30.3335 27.6666H1.66683C0.933496 27.6666 0.333496 27.0666 0.333496 26.3333V19.5333C0.333496 18.8 0.933496 18.2 1.66683 18.2H30.4002C31.1335 18.2 31.7335 18.8 31.7335 19.5333V26.3333C31.6668 27.0666 31.0668 27.6666 30.3335 27.6666ZM2.9335 25.0666H29.0668V20.8666H2.9335V25.0666Z" fill="black"/>
<path d="M1.66683 31.6666C0.933496 31.6666 0.333496 31.0666 0.333496 30.3333V15.4666C0.333496 12.5333 2.66683 10.1333 5.60016 10.1333C6.3335 10.1333 6.9335 10.7333 6.9335 11.4666C6.9335 12.2 6.3335 12.8 5.60016 12.8C4.1335 12.8 2.9335 14 2.9335 15.5333V30.4C2.9335 31.0666 2.3335 31.6666 1.66683 31.6666Z" fill="black"/>
<path d="M30.3333 31.6667C29.6 31.6667 29 31.0667 29 30.3333V15.4667C29 13.9333 27.8 12.7333 26.3333 12.7333C25.6 12.7333 25 12.1333 25 11.4C25 10.6667 25.6 10.0667 26.3333 10.0667C29.2 10.0667 31.6 12.4667 31.6 15.4V30.2667C31.6667 31.0667 31.0667 31.6667 30.3333 31.6667Z" fill="black"/>
<path d="M26.1337 20.8666H5.86702C5.13369 20.8666 4.53369 20.2666 4.53369 19.5333V11.7999C4.53369 5.46659 9.66703 0.333252 16.0004 0.333252C22.3337 0.333252 27.467 5.46659 27.467 11.7999V19.5999C27.467 20.2666 26.867 20.8666 26.1337 20.8666ZM7.13369 18.2666H24.8004V11.7999C24.8004 6.93325 20.867 2.93325 15.9337 2.93325C11.0004 2.93325 7.06702 6.86659 7.06702 11.7999V18.2666H7.13369Z" fill="black"/>
</svg>
