<svg width="32" height="32" viewBox="0 0 32 32" fill="none" xmlns="http://www.w3.org/2000/svg">
<path d="M6.00016 31.6666H4.1335C2.00016 31.6666 0.333496 29.9333 0.333496 27.8666V13.1999C0.333496 11.0666 2.00016 9.33325 4.1335 9.33325H6.00016C8.1335 9.33325 9.80016 11.0666 9.80016 13.1333V27.7999C9.80016 29.9999 8.06683 31.6666 6.00016 31.6666ZM4.1335 11.9999C3.46683 11.9999 2.9335 12.5333 2.9335 13.1999V27.8666C2.9335 28.5333 3.46683 29.0666 4.1335 29.0666H6.00016C6.66683 29.0666 7.20016 28.5333 7.20016 27.8666V13.1999C7.20016 12.5333 6.66683 11.9999 6.00016 11.9999H4.1335Z" fill="black"/>
<path d="M27.8669 31.6666H26.0002C23.8669 31.6666 22.2002 29.9332 22.2002 27.8666V13.1999C22.2002 11.0666 23.9335 9.3999 26.0002 9.3999H27.8669C30.0002 9.3999 31.6669 11.1332 31.6669 13.1999V27.8666C31.6669 29.9999 30.0002 31.6666 27.8669 31.6666ZM26.0002 11.9999C25.3335 11.9999 24.8002 12.5332 24.8002 13.1999V27.8666C24.8002 28.5332 25.3335 29.0666 26.0002 29.0666H27.8669C28.5335 29.0666 29.0669 28.5332 29.0669 27.8666V13.1999C29.0669 12.5332 28.5335 11.9999 27.8669 11.9999H26.0002Z" fill="black"/>
<path d="M23.4669 28.0665H8.53353C7.8002 28.0665 7.2002 27.4665 7.2002 26.7331V21.1998C7.2002 20.4665 7.8002 19.8665 8.53353 19.8665H23.5335C24.2669 19.8665 24.8669 20.4665 24.8669 21.1998V26.7331C24.8002 27.4665 24.2002 28.0665 23.4669 28.0665ZM9.8002 25.4665H22.2002V22.5331H9.8002V25.4665Z" fill="black"/>
<path d="M23.4669 22.5334H8.53353C7.8002 22.5334 7.2002 21.9334 7.2002 21.2C7.2002 20.4667 7.8002 19.8667 8.53353 19.8667H23.5335C24.2669 19.8667 24.8669 20.4667 24.8669 21.2C24.8002 21.9334 24.2002 22.5334 23.4669 22.5334Z" fill="black"/>
<path d="M26.9337 11.8666C26.2003 11.8666 25.6003 11.2666 25.6003 10.5333V5.6666C25.6003 4.0666 24.7337 2.93327 24.0003 2.93327H8.93366C8.20033 2.93327 7.33366 4.13327 7.33366 5.6666V10.3999C7.33366 11.1333 6.73366 11.7333 6.00033 11.7333C5.26699 11.7333 4.66699 11.1333 4.66699 10.3999V5.6666C4.66699 2.6666 6.53366 0.266602 8.86699 0.266602H24.0003C26.3337 0.266602 28.2003 2.59994 28.2003 5.6666V10.5333C28.267 11.2666 27.667 11.8666 26.9337 11.8666Z" fill="black"/>
</svg>
