<svg width="34" height="32" viewBox="0 0 34 32" fill="none" xmlns="http://www.w3.org/2000/svg">
<path d="M10.2628 31.9999H5.34519C4.56123 31.9999 3.91981 31.3585 3.91981 30.5746V21.4521C1.63919 20.6681 0 18.3875 0 15.8218C0 12.5434 2.56569 9.83521 5.77281 9.83521C8.97993 9.83521 11.5456 12.4722 11.5456 15.8218V30.6458C11.6169 31.4298 10.9755 31.9999 10.2628 31.9999ZM6.77058 29.2204H8.83739V15.8218C8.83739 14.1114 7.48327 12.686 5.84408 12.686C4.20489 12.686 2.85077 14.1114 2.85077 15.8218C2.85077 17.461 3.99108 18.8151 5.48773 18.9577C6.20043 19.0289 6.69931 19.6704 6.69931 20.3118V29.2204H6.77058Z" fill="black"/>
<path d="M28.2937 31.9999H23.4474C22.6634 31.9999 22.022 31.3585 22.022 30.5746V15.8218C22.022 12.5434 24.5877 9.83521 27.7948 9.83521C31.0019 9.83521 33.5676 12.4722 33.5676 15.8218C33.5676 18.3875 31.9284 20.6681 29.6478 21.4521V30.6458C29.6478 31.4298 29.0776 31.9999 28.2937 31.9999ZM24.8015 29.2204H26.8683V20.3831C26.8683 19.6704 27.3672 19.1002 28.0799 19.0289C29.5765 18.8864 30.7168 17.5323 30.7168 15.8931C30.7168 14.1826 29.3627 12.7572 27.7235 12.7572C26.0843 12.7572 24.7302 14.1826 24.7302 15.8931V29.2204H24.8015Z" fill="black"/>
<path d="M23.3763 31.9999H10.2628C9.47883 31.9999 8.8374 31.3585 8.8374 30.5745V19.8841C8.8374 19.1002 9.47883 18.4587 10.2628 18.4587H23.4476C24.2316 18.4587 24.873 19.1002 24.873 19.8841V30.5745C24.8017 31.4297 24.1603 31.9999 23.3763 31.9999ZM11.6169 29.2204H22.0222V21.3808H11.6169V29.2204Z" fill="black"/>
<path d="M23.3763 21.3808H10.2628C9.47883 21.3808 8.8374 20.7394 8.8374 19.9554V7.69708C8.8374 3.49219 12.2583 0 16.5345 0H17.1759C21.3808 0 24.873 3.42092 24.873 7.69708V19.9554C24.8017 20.7394 24.1603 21.3808 23.3763 21.3808ZM11.6169 18.53H22.0222V7.69708C22.0222 4.98885 19.8129 2.85077 17.1759 2.85077H16.5345C13.8263 2.85077 11.6882 5.06012 11.6882 7.69708V18.53H11.6169Z" fill="black"/>
</svg>
