<svg width="16" height="16" viewBox="0 0 16 16" fill="none" xmlns="http://www.w3.org/2000/svg">
<path d="M1 12.9092C1 12.5075 1.32561 12.1819 1.72727 12.1819H5.72727C6.12893 12.1819 6.45455 12.5075 6.45455 12.9092C6.45455 13.3108 6.12893 13.6364 5.72727 13.6364H1.72727C1.32561 13.6364 1 13.3108 1 12.9092Z" fill="#343538"/>
<path d="M1 9.63645C1 9.23479 1.32561 8.90918 1.72727 8.90918H8.63636C9.03803 8.90918 9.36364 9.23479 9.36364 9.63645C9.36364 10.0381 9.03803 10.3637 8.63636 10.3637H1.72727C1.32561 10.3637 1 10.0381 1 9.63645Z" fill="#343538"/>
<path d="M1 6.36375C1 5.96209 1.32561 5.63647 1.72727 5.63647H11.5455C11.9471 5.63647 12.2727 5.96209 12.2727 6.36375C12.2727 6.76541 11.9471 7.09102 11.5455 7.09102H1.72727C1.32561 7.09102 1 6.76541 1 6.36375Z" fill="#343538"/>
<path d="M1 3.0908C1 2.68914 1.32561 2.36353 1.72727 2.36353H14.4545C14.8562 2.36353 15.1818 2.68914 15.1818 3.0908C15.1818 3.49246 14.8562 3.81807 14.4545 3.81807H1.72727C1.32561 3.81807 1 3.49246 1 3.0908Z" fill="#343538"/>
</svg>
