<svg width="30" height="30" viewBox="0 0 30 30" fill="none" xmlns="http://www.w3.org/2000/svg">
<path d="M28.5 2.75H1.5C0.8125 2.75 0.25 2.1875 0.25 1.5C0.25 0.8125 0.8125 0.25 1.5 0.25H28.4375C29.125 0.25 29.6875 0.8125 29.6875 1.5C29.6875 2.1875 29.125 2.75 28.5 2.75Z" fill="black"/>
<path d="M25.1249 29.6874C24.7499 29.6874 24.3749 29.4999 24.1249 29.1874L3.9374 2.2499C3.4999 1.6874 3.6249 0.937399 4.1874 0.562399C4.7499 0.124899 5.4999 0.249899 5.8749 0.812399L26.0624 27.7499C26.4374 28.3124 26.3749 29.0624 25.8124 29.4374C25.6249 29.6249 25.3749 29.6874 25.1249 29.6874Z" fill="black"/>
<path d="M4.87504 29.6873C4.62504 29.6873 4.37504 29.6248 4.12504 29.4373C3.56254 29.0623 3.50004 28.2498 3.87504 27.7498L24.125 0.812292C24.5 0.249792 25.3125 0.187292 25.8125 0.562292C26.375 0.937292 26.4375 1.74979 26.0625 2.24979L5.87504 29.1873C5.62504 29.5623 5.25004 29.6873 4.87504 29.6873Z" fill="black"/>
</svg>
