<svg width="32" height="32" viewBox="0 0 32 32" fill="none" xmlns="http://www.w3.org/2000/svg">
<path d="M30.6385 28.3913H21.9917C21.2428 28.3913 20.63 27.7786 20.63 27.0296C20.63 26.2807 21.2428 25.6679 21.9917 25.6679H29.3449V6.26369H21.1747C20.4258 6.26369 19.813 5.65092 19.813 4.90199C19.813 4.15305 20.4258 3.54028 21.1747 3.54028H30.6385C31.3875 3.54028 32.0002 4.15305 32.0002 4.90199V27.0977C32.0002 27.8467 31.3875 28.3913 30.6385 28.3913Z" fill="black"/>
<path d="M25.6 13.2766H21.2426C20.4936 13.2766 19.8809 12.6639 19.8809 11.9149C19.8809 11.166 20.4936 10.5532 21.2426 10.5532H25.6C26.3489 10.5532 26.9617 11.166 26.9617 11.9149C26.9617 12.6639 26.3489 13.2766 25.6 13.2766Z" fill="black"/>
<path d="M25.6 21.3787H21.2426C20.4936 21.3787 19.8809 20.7659 19.8809 20.017C19.8809 19.268 20.4936 18.6553 21.2426 18.6553H25.6C26.3489 18.6553 26.9617 19.268 26.9617 20.017C26.9617 20.7659 26.3489 21.3787 25.6 21.3787Z" fill="black"/>
<path d="M21.1064 32H1.3617C0.612766 32 0 31.3872 0 30.6383V1.3617C0 0.612766 0.612766 0 1.3617 0H21.1745C21.9234 0 22.5362 0.612766 22.5362 1.3617V30.7064C22.4681 31.3872 21.8553 32 21.1064 32ZM2.65532 29.3447H19.8128V2.65532H2.65532V29.3447Z" fill="black"/>
<path d="M14.0933 9.32765H8.44227C7.69333 9.32765 7.08057 8.71489 7.08057 7.96595C7.08057 7.21701 7.69333 6.60425 8.44227 6.60425H14.0933C14.8423 6.60425 15.455 7.21701 15.455 7.96595C15.455 8.71489 14.7742 9.32765 14.0933 9.32765Z" fill="black"/>
<path d="M14.0933 17.3618H8.44227C7.69333 17.3618 7.08057 16.7491 7.08057 16.0001C7.08057 15.2512 7.69333 14.6384 8.44227 14.6384H14.0933C14.8423 14.6384 15.455 15.2512 15.455 16.0001C15.455 16.7491 14.7742 17.3618 14.0933 17.3618Z" fill="black"/>
<path d="M14.0933 25.3277H8.44227C7.69333 25.3277 7.08057 24.7149 7.08057 23.966C7.08057 23.217 7.69333 22.6042 8.44227 22.6042H14.0933C14.8423 22.6042 15.455 23.217 15.455 23.966C15.3869 24.7149 14.7742 25.3277 14.0933 25.3277Z" fill="black"/>
</svg>
