<svg width="4" height="6" viewBox="0 0 4 6" fill="none" xmlns="http://www.w3.org/2000/svg">
<g clip-path="url(#clip0)">
<path d="M0.14601 4.73106L2.08601 2.79106L0.14601 0.851058C0.0997194 0.804767 0.0629997 0.749812 0.0379472 0.68933C0.0128947 0.628848 4.87756e-10 0.564023 0 0.498559C-4.87753e-10 0.433093 0.0128947 0.368268 0.0379472 0.307786C0.0629997 0.247304 0.0997194 0.192348 0.14601 0.146058C0.192301 0.0997663 0.247257 0.0630469 0.307739 0.0379949C0.368221 0.0129423 0.433045 4.81606e-05 0.49851 4.81606e-05C0.563976 4.81606e-05 0.6288 0.0129423 0.689282 0.0379949C0.749764 0.0630469 0.804719 0.0997663 0.85101 0.146058L3.14601 2.44106C3.19236 2.48731 3.22914 2.54226 3.25423 2.60275C3.27932 2.66323 3.29223 2.72807 3.29223 2.79356C3.29223 2.85904 3.27932 2.92388 3.25423 2.98437C3.22914 3.04486 3.19236 3.0998 3.14601 3.14606L0.85101 5.44106C0.804753 5.48741 0.749809 5.52418 0.689322 5.54927C0.628836 5.57437 0.563995 5.58728 0.49851 5.58728C0.433026 5.58728 0.368185 5.57437 0.307698 5.54927C0.247212 5.52418 0.192267 5.48741 0.14601 5.44106C-0.0439896 5.24606 -0.0489896 4.92606 0.14601 4.73106Z" fill="black"/>
</g>
<defs>
<clipPath id="clip0">
<rect width="6" height="4" fill="white" transform="translate(0 6) rotate(-90)"/>
</clipPath>
</defs>
</svg>
