<svg width="32" height="32" viewBox="0 0 32 32" fill="none" xmlns="http://www.w3.org/2000/svg">
<path d="M23 15H12.414L16.535 10.879C16.926 10.488 16.926 9.85501 16.535 9.46499C16.1439 9.07399 15.511 9.07399 15.121 9.46499L9.464 15.122C9.22499 15.361 9.15001 15.69 9.20497 16C9.14996 16.31 9.22499 16.639 9.46499 16.879L15.122 22.536C15.513 22.927 16.146 22.927 16.536 22.536C16.927 22.145 16.927 21.512 16.536 21.122L12.414 17H23C23.552 17 24 16.552 24 16C24 15.448 23.552 15 23 15ZM16 0C7.16298 0 0 7.16298 0 16C0 24.836 7.16298 32 16 32C24.837 32 32 24.836 32 16C32 7.16298 24.837 0 16 0ZM16 30C8.26797 30 2 23.732 2 16C2 8.26797 8.26797 2 16 2C23.732 2 30 8.26797 30 16C30 23.732 23.732 30 16 30Z" fill="black"/>
</svg>
