<svg width="32" height="32" viewBox="0 0 32 32" fill="none" xmlns="http://www.w3.org/2000/svg">
<path d="M22.536 15.121L16.879 9.464C16.488 9.07299 15.8551 9.07299 15.465 9.464C15.074 9.85501 15.074 10.488 15.465 10.878L19.586 15H9C8.448 15 8 15.448 8 16C8 16.552 8.448 17 9 17H19.586L15.465 21.121C15.074 21.512 15.074 22.145 15.465 22.535C15.856 22.926 16.489 22.926 16.879 22.535L22.5359 16.878C22.7759 16.638 22.8499 16.31 22.796 15.999C22.85 15.69 22.775 15.361 22.536 15.121ZM16 0C7.16298 0 0 7.16298 0 16C0 24.837 7.16298 32 16 32C24.837 32 32 24.836 32 16C32 7.16403 24.837 0 16 0ZM16 30C8.26797 30 2 23.732 2 16C2 8.26797 8.26797 2 16 2C23.732 2 30 8.26797 30 16C30 23.732 23.732 30 16 30Z" fill="black"/>
</svg>
